<svg
    xmlns="http://www.w3.org/2000/svg"
    viewBox="0 0 120 120"
    id="vector">
    <path
        id="face"
        d="M 79.091 103.636 L 79.091 103.681 C 79.091 109.681 74.005 114.545 67.732 114.545 L 52.268 114.545 C 45.995 114.545 40.909 109.681 40.909 103.681 L 40.909 103.636 L 79.091 103.636 Z M 59.339 2.732 C 85.248 2.375 106.364 23.023 106.364 48.545 C 106.364 65.025 97.558 79.471 84.345 87.544 C 81.589 89.227 79.87 92.161 79.87 95.362 L 79.87 98.182 L 40.706 98.182 L 40.706 95.709 C 40.706 92.463 38.937 89.5 36.123 87.826 C 22.819 79.912 13.864 65.585 13.64 49.174 C 13.302 24.279 34.148 3.079 59.339 2.732 Z"
        fill="#ffd348"
        stroke-width="1"/>
    <g id="group">
        <path
            id="eyes"
            d="M 35.455 38.182 C 35.455 42.7 39.118 46.364 43.636 46.364 C 48.155 46.364 51.818 42.7 51.818 38.182 C 51.818 33.663 48.155 30 43.636 30 C 39.118 30 35.455 33.663 35.455 38.182 Z M 68.182 38.182 C 68.182 42.7 71.845 46.364 76.364 46.364 C 80.883 46.364 84.545 42.7 84.545 38.182 C 84.545 33.663 80.883 30 76.364 30 C 71.845 30 68.182 33.663 68.182 38.182 Z"
            fill="#60361a"
            stroke-width="1"/>
        <path
            id="mouth"
            d="M 60.5 84 C 51.3 83.8 40.9 77 39.6 67.1 C 38.1 55 51.3 54.3 60.5 54.1 C 69.8 54.3 82.9 55 81.4 67.2 C 80.1 77 69.8 83.8 60.5 84 Z"
            fill="#6a3909"
            stroke-width="1"
            fill-rule="evenodd"/>
    </g>
</svg>
