<svg
    xmlns="http://www.w3.org/2000/svg"
    viewBox="0 0 40 40"
    id="vector">
    <path
        id="face"
        d="M 0 20.058 C 0 31.052 8.954 39.964 20 39.964 C 31.046 39.964 40 31.052 40 20.058 C 40 9.064 31.046 0.152 20 0.152 C 8.954 0.152 0 9.064 0 20.058 Z"
        fill="#8395f8"
        stroke-width="1"
        fill-rule="evenodd"/>
    <g id="eyes__mouth">
        <path
            id="mouth"
            d="M 20 33 C 27.18 33 33 27.327 33 20.329 C 33 20.329 29.991 19 20 19 C 10.009 19 7 20.329 7 20.329 C 7 27.327 12.82 33 20 33"
            fill="#021563"
            stroke-width="1"
            fill-rule="evenodd"/>
        <path
            id="eyes"
            d="M 10 12 C 11.657 12 13 13.408 13 15.145 C 13 15.839 12.786 16.48 12.423 17 C 11.877 16.218 10.995 15.71 10 15.71 C 9.005 15.71 8.123 16.218 7.577 17 C 7.214 16.48 7 15.839 7 15.145 C 7 13.408 8.343 12 10 12 M 30 12 C 31.657 12 33 13.408 33 15.145 C 33 15.839 32.786 16.48 32.423 17 C 31.877 16.218 30.995 15.71 30 15.71 C 29.005 15.71 28.123 16.218 27.577 17 C 27.214 16.48 27 15.839 27 15.145 C 27 13.408 28.343 12 30 12"
            fill="#021563"
            stroke-width="1"/>
    </g>
</svg>
