<svg width="24" height="24" viewBox="0 0 24 24" fill="none" xmlns="http://www.w3.org/2000/svg">
<path d="M4.58 23L3.93 15.46L0 9.4L7.01 6.48L12 1L16.99 6.49L24 9.4L20.07 15.45L19.42 23L12 21L4.58 23Z" fill="#44E1B9"/>
<path d="M16.49 14.5C16.49 14.53 16.5 14.55 16.5 14.57C16.5 17.01 14.49 19 12 19C9.50999 19 7.49999 17.02 7.49999 14.57C7.49999 14.54 7.50999 14.52 7.50999 14.5C8.85999 15.17 10.38 15.56 12 15.56C13.62 15.56 15.14 15.17 16.49 14.5ZM7.83999 11.31C8.47999 11.14 9.12999 11.3 9.60999 11.68C9.75999 11.3 9.79999 10.88 9.67999 10.46C9.39999 9.41 8.29999 8.79 7.22999 9.07C6.15999 9.35 5.52999 10.43 5.81999 11.48C5.92999 11.9 6.17999 12.25 6.49999 12.5C6.71999 11.93 7.19999 11.48 7.83999 11.31ZM17.5 12.5C17.82 12.25 18.07 11.9 18.18 11.48C18.47 10.43 17.83 9.35 16.77 9.07C15.7 8.79 14.61 9.41 14.32 10.46C14.21 10.88 14.24 11.3 14.39 11.68C14.87 11.3 15.52 11.14 16.16 11.31C16.8 11.48 17.28 11.93 17.5 12.5Z" fill="#0C403B"/>
</svg>
