<svg
    xmlns="http://www.w3.org/2000/svg"
    viewBox="0 0 120 120"
    id="vector">
    <path
        id="face"
        d="M 35.467 32.156 L 0 46.48 L 20.306 78.991 L 22.918 117.273 L 60 107.937 L 97.082 117.273 L 99.694 78.991 L 120 46.48 L 84.533 32.156 L 60 2.727 Z"
        fill="#44e1b9"
        stroke-width="1"/>
    <g id="face_group">
        <g
            id="right_eye_group"
            transform="translate(-12 10) rotate(15 78 52)">
            <path
                id="right_eye"
                d="M 87 38 C 92.523 38 97 41.942 97 46.806 C 97 48.748 96.286 50.544 95.076 52 C 93.257 49.809 90.317 48.387 87 48.387 C 83.683 48.387 80.743 49.809 78.923 52 C 77.714 50.544 77 48.748 77 46.806 C 77 41.942 81.477 38 87 38"
                fill="#0c403b"
                stroke-width="1"/>
        </g>
        <g
            id="left_eye_group"
            transform="translate(12 10) rotate(-15 41 52)">
            <path
                id="left_eye"
                d="M 33 38 C 38.523 38 43 41.942 43 46.806 C 43 48.748 42.286 50.544 41.076 52 C 39.257 49.809 36.317 48.387 33 48.387 C 29.683 48.387 26.743 49.809 24.923 52 C 23.714 50.544 23 48.748 23 46.806 C 23 41.942 27.477 38 33 38"
                fill="#0c403b"
                stroke-width="1"/>
        </g>
        <g id="mouth_group">
            <path
                id="mouth"
                d="M 60.001 95.455 C 71.958 95.455 81.668 85.837 81.818 73.916 L 81.788 73.938 C 77.437 76.989 69.309 79.042 60.001 79.042 C 50.671 79.042 42.527 76.98 38.184 73.917 L 38.182 73.636 C 38.182 85.687 47.95 95.455 60.001 95.455 Z"
                fill="#0c403b"
                stroke-width="1"/>
        </g>
    </g>
</svg>
