<svg
    xmlns="http://www.w3.org/2000/svg"
    viewBox="0 0 120 120"
    id="vector">
    <path
        id="face"
        d="M 45.195 8.182 C 24.753 8.182 8.182 24.754 8.182 45.195 L 8.182 74.805 C 8.182 95.247 24.753 111.818 45.195 111.818 L 74.805 111.818 C 95.247 111.818 111.818 95.247 111.818 74.805 L 111.818 45.195 C 111.818 24.754 95.247 8.182 74.805 8.182 L 45.195 8.182 Z"
        fill="#ffad65"
        stroke-width="1"
        fill-rule="evenodd"/>
    <g id="group">
        <path
            id="mouth"
            d="M 43.636 73.636 C 43.636 84.18 50.963 92.727 60 92.727 C 69.037 92.727 76.364 84.18 76.364 73.636 C 76.364 63.093 69.037 54.545 60 54.545 C 50.963 54.545 43.636 63.093 43.636 73.636 Z"
            fill="#60361a"
            stroke-width="1"
            fill-rule="evenodd"/>
        <g id="eyes_group">
            <path
                id="left_eye"
                d="M 35.455 46.363 C 35.455 50.882 39.118 54.545 43.636 54.545 C 48.155 54.545 51.818 50.882 51.818 46.363 C 51.818 41.845 48.155 38.182 43.636 38.182 C 39.118 38.182 35.455 41.845 35.455 46.363 Z"
                fill="#60361a"
                stroke-width="1"/>
            <path
                id="right_eye"
                d="M 68.182 46.363 C 68.182 50.882 71.845 54.545 76.364 54.545 C 80.883 54.545 84.545 50.882 84.545 46.363 C 84.545 41.845 80.883 38.182 76.364 38.182 C 71.845 38.182 68.182 41.845 68.182 46.363 Z"
                fill="#60361a"
                stroke-width="1"/>
        </g>
    </g>
</svg>
